<mxfile host="drawio-plugin" modified="2024-05-21T22:00:15.614Z" agent="5.0 (Windows NT 10.0; Win64; x64) AppleWebKit/537.36 (KHTML, like Gecko) Chrome/111.0.0.0 Safari/537.36" etag="iM25Gma7VEwuMUP3fzhV" version="20.5.3" type="embed"><diagram name="Страница — 1" id="-2dhWkgFpOOAvYboyMm9"><mxGraphModel dx="1045" dy="750" grid="1" gridSize="10" guides="1" tooltips="1" connect="1" arrows="1" fold="1" page="1" pageScale="1" pageWidth="827" pageHeight="1169" math="0" shadow="0"><root><mxCell id="0"/><mxCell id="1" parent="0"/><mxCell id="Bh3pZPlAoXe7MRYz6FHz-1" value="DataPath" style="rounded=0;whiteSpace=wrap;html=1;" parent="1" vertex="1"><mxGeometry x="200" y="524" width="120" height="60" as="geometry"/></mxCell><mxCell id="Bh3pZPlAoXe7MRYz6FHz-2" value="Return&lt;div&gt;stack&lt;/div&gt;" style="rounded=0;whiteSpace=wrap;html=1;" parent="1" vertex="1"><mxGeometry x="40" y="160" width="120" height="160" as="geometry"/></mxCell><mxCell id="Bh3pZPlAoXe7MRYz6FHz-3" value="Commands&lt;div&gt;&lt;span style=&quot;background-color: initial;&quot;&gt;memory&lt;/span&gt;&lt;br&gt;&lt;/div&gt;" style="rounded=0;whiteSpace=wrap;html=1;" parent="1" vertex="1"><mxGeometry x="360" y="120" width="120" height="240" as="geometry"/></mxCell><mxCell id="Bh3pZPlAoXe7MRYz6FHz-4" value="mP" style="rounded=0;whiteSpace=wrap;html=1;" parent="1" vertex="1"><mxGeometry x="680" y="240" width="120" height="240" as="geometry"/></mxCell><mxCell id="Bh3pZPlAoXe7MRYz6FHz-5" value="mPc" style="rounded=0;whiteSpace=wrap;html=1;" parent="1" vertex="1"><mxGeometry x="560" y="240" width="80" height="60" as="geometry"/></mxCell><mxCell id="Bh3pZPlAoXe7MRYz6FHz-6" value="decoder" style="rounded=0;whiteSpace=wrap;html=1;" parent="1" vertex="1"><mxGeometry x="200" y="424" width="120" height="40" as="geometry"/></mxCell><mxCell id="Bh3pZPlAoXe7MRYz6FHz-8" value="Programm&lt;div&gt;counter&lt;/div&gt;" style="rounded=0;whiteSpace=wrap;html=1;" parent="1" vertex="1"><mxGeometry x="220" y="240" width="80" height="60" as="geometry"/></mxCell><mxCell id="2" value="" style="endArrow=classic;html=1;rounded=0;exitX=1;exitY=0.5;exitDx=0;exitDy=0;entryX=0;entryY=0.5;entryDx=0;entryDy=0;strokeWidth=2;" edge="1" parent="1" source="Bh3pZPlAoXe7MRYz6FHz-5" target="Bh3pZPlAoXe7MRYz6FHz-4"><mxGeometry width="50" height="50" relative="1" as="geometry"><mxPoint x="390" y="530" as="sourcePoint"/><mxPoint x="440" y="480" as="targetPoint"/><Array as="points"><mxPoint x="660" y="270"/><mxPoint x="660" y="360"/></Array></mxGeometry></mxCell><mxCell id="4" value="MUX" style="verticalLabelPosition=middle;verticalAlign=middle;html=1;shape=trapezoid;perimeter=trapezoidPerimeter;whiteSpace=wrap;size=0.23;arcSize=10;flipV=1;labelPosition=center;align=center;rotation=0;" vertex="1" parent="1"><mxGeometry x="550" y="170" width="100" height="30" as="geometry"/></mxCell><mxCell id="5" value="" style="endArrow=classic;html=1;rounded=0;exitX=0.5;exitY=1;exitDx=0;exitDy=0;entryX=0.5;entryY=0;entryDx=0;entryDy=0;strokeWidth=2;" edge="1" parent="1" source="4" target="Bh3pZPlAoXe7MRYz6FHz-5"><mxGeometry width="50" height="50" relative="1" as="geometry"><mxPoint x="510" y="410" as="sourcePoint"/><mxPoint x="560" y="360" as="targetPoint"/></mxGeometry></mxCell><mxCell id="6" value="" style="endArrow=classic;html=1;rounded=0;exitX=0.5;exitY=1;exitDx=0;exitDy=0;entryX=1;entryY=0.5;entryDx=0;entryDy=0;strokeWidth=2;" edge="1" parent="1" source="Bh3pZPlAoXe7MRYz6FHz-4" target="Bh3pZPlAoXe7MRYz6FHz-6"><mxGeometry width="50" height="50" relative="1" as="geometry"><mxPoint x="510" y="410" as="sourcePoint"/><mxPoint x="560" y="360" as="targetPoint"/><Array as="points"><mxPoint x="740" y="510"/><mxPoint x="420" y="510"/><mxPoint x="420" y="444"/></Array></mxGeometry></mxCell><mxCell id="7" value="" style="endArrow=classic;html=1;rounded=0;exitX=0.5;exitY=1;exitDx=0;exitDy=0;entryX=0.5;entryY=0;entryDx=0;entryDy=0;strokeWidth=2;" edge="1" parent="1" source="Bh3pZPlAoXe7MRYz6FHz-6" target="Bh3pZPlAoXe7MRYz6FHz-1"><mxGeometry relative="1" as="geometry"><mxPoint x="480" y="414" as="sourcePoint"/><mxPoint x="580" y="414" as="targetPoint"/></mxGeometry></mxCell><mxCell id="8" value="signals" style="edgeLabel;resizable=0;html=1;align=center;verticalAlign=middle;" connectable="0" vertex="1" parent="7"><mxGeometry relative="1" as="geometry"/></mxCell><mxCell id="9" value="" style="endArrow=classic;html=1;rounded=0;exitX=0.75;exitY=0;exitDx=0;exitDy=0;entryX=0.75;entryY=0;entryDx=0;entryDy=0;strokeWidth=2;" edge="1" parent="1" source="Bh3pZPlAoXe7MRYz6FHz-5" target="4"><mxGeometry width="50" height="50" relative="1" as="geometry"><mxPoint x="390" y="300" as="sourcePoint"/><mxPoint x="440" y="250" as="targetPoint"/><Array as="points"><mxPoint x="620" y="220"/><mxPoint x="680" y="220"/><mxPoint x="680" y="130"/><mxPoint x="625" y="130"/></Array></mxGeometry></mxCell><mxCell id="10" value="+ 1" style="edgeLabel;html=1;align=center;verticalAlign=middle;resizable=0;points=[];" vertex="1" connectable="0" parent="9"><mxGeometry x="0.0989" y="-1" relative="1" as="geometry"><mxPoint as="offset"/></mxGeometry></mxCell><mxCell id="11" value="" style="endArrow=classic;html=1;rounded=0;entryX=0.5;entryY=0;entryDx=0;entryDy=0;exitX=0.5;exitY=1;exitDx=0;exitDy=0;strokeWidth=2;" edge="1" parent="1" source="12" target="4"><mxGeometry width="50" height="50" relative="1" as="geometry"><mxPoint x="600" y="130" as="sourcePoint"/><mxPoint x="560" y="180" as="targetPoint"/></mxGeometry></mxCell><mxCell id="12" value="0" style="text;html=1;strokeColor=none;fillColor=none;align=center;verticalAlign=middle;whiteSpace=wrap;rounded=0;strokeWidth=2;" vertex="1" parent="1"><mxGeometry x="590" y="100" width="20" height="30" as="geometry"/></mxCell><mxCell id="13" value="opcode -&amp;gt; mc" style="rounded=0;whiteSpace=wrap;html=1;" vertex="1" parent="1"><mxGeometry x="500" y="360" width="100" height="30" as="geometry"/></mxCell><mxCell id="14" value="" style="endArrow=classic;html=1;rounded=0;exitX=1;exitY=0.75;exitDx=0;exitDy=0;entryX=0.25;entryY=0;entryDx=0;entryDy=0;strokeWidth=2;" edge="1" parent="1" source="Bh3pZPlAoXe7MRYz6FHz-3" target="13"><mxGeometry width="50" height="50" relative="1" as="geometry"><mxPoint x="510" y="340" as="sourcePoint"/><mxPoint x="560" y="290" as="targetPoint"/><Array as="points"><mxPoint x="500" y="300"/><mxPoint x="500" y="340"/><mxPoint x="525" y="340"/></Array></mxGeometry></mxCell><mxCell id="15" value="" style="endArrow=classic;html=1;rounded=0;exitX=0.75;exitY=0;exitDx=0;exitDy=0;entryX=0.25;entryY=0;entryDx=0;entryDy=0;strokeWidth=2;" edge="1" parent="1" source="13" target="4"><mxGeometry width="50" height="50" relative="1" as="geometry"><mxPoint x="510" y="340" as="sourcePoint"/><mxPoint x="560" y="290" as="targetPoint"/><Array as="points"><mxPoint x="575" y="320"/><mxPoint x="530" y="320"/><mxPoint x="530" y="130"/><mxPoint x="575" y="130"/></Array></mxGeometry></mxCell><mxCell id="16" value="" style="endArrow=classic;html=1;rounded=0;exitX=1;exitY=0.5;exitDx=0;exitDy=0;entryX=0.25;entryY=0;entryDx=0;entryDy=0;strokeWidth=2;" edge="1" parent="1" source="Bh3pZPlAoXe7MRYz6FHz-2" target="21"><mxGeometry width="50" height="50" relative="1" as="geometry"><mxPoint x="430" y="350" as="sourcePoint"/><mxPoint x="480" y="300" as="targetPoint"/><Array as="points"><mxPoint x="200" y="240"/><mxPoint x="200" y="130"/><mxPoint x="235" y="130"/></Array></mxGeometry></mxCell><mxCell id="18" value="" style="endArrow=classic;html=1;rounded=0;entryX=1;entryY=0.75;entryDx=0;entryDy=0;exitX=0.5;exitY=1;exitDx=0;exitDy=0;strokeWidth=2;" edge="1" parent="1" source="Bh3pZPlAoXe7MRYz6FHz-8" target="Bh3pZPlAoXe7MRYz6FHz-2"><mxGeometry width="50" height="50" relative="1" as="geometry"><mxPoint x="430" y="350" as="sourcePoint"/><mxPoint x="480" y="300" as="targetPoint"/><Array as="points"><mxPoint x="260" y="340"/><mxPoint x="180" y="340"/><mxPoint x="180" y="280"/></Array></mxGeometry></mxCell><mxCell id="19" value="+ 1" style="edgeLabel;html=1;align=center;verticalAlign=middle;resizable=0;points=[];" vertex="1" connectable="0" parent="18"><mxGeometry x="0.036" y="1" relative="1" as="geometry"><mxPoint x="14" y="-11" as="offset"/></mxGeometry></mxCell><mxCell id="20" value="" style="endArrow=classic;html=1;rounded=0;exitX=1;exitY=0.5;exitDx=0;exitDy=0;strokeWidth=2;" edge="1" parent="1" source="Bh3pZPlAoXe7MRYz6FHz-8"><mxGeometry width="50" height="50" relative="1" as="geometry"><mxPoint x="430" y="380" as="sourcePoint"/><mxPoint x="360" y="270" as="targetPoint"/><Array as="points"/></mxGeometry></mxCell><mxCell id="21" value="MUX" style="verticalLabelPosition=middle;verticalAlign=middle;html=1;shape=trapezoid;perimeter=trapezoidPerimeter;whiteSpace=wrap;size=0.23;arcSize=10;flipV=1;labelPosition=center;align=center;rotation=0;" vertex="1" parent="1"><mxGeometry x="210" y="170" width="100" height="30" as="geometry"/></mxCell><mxCell id="22" value="" style="endArrow=classic;html=1;rounded=0;exitX=0.75;exitY=0;exitDx=0;exitDy=0;entryX=0.75;entryY=0;entryDx=0;entryDy=0;strokeWidth=2;" edge="1" parent="1" source="Bh3pZPlAoXe7MRYz6FHz-8" target="21"><mxGeometry width="50" height="50" relative="1" as="geometry"><mxPoint x="280" y="240" as="sourcePoint"/><mxPoint x="285" y="170" as="targetPoint"/><Array as="points"><mxPoint x="280" y="220"/><mxPoint x="340" y="220"/><mxPoint x="340" y="130"/><mxPoint x="285" y="130"/></Array></mxGeometry></mxCell><mxCell id="23" value="+ 1" style="edgeLabel;html=1;align=center;verticalAlign=middle;resizable=0;points=[];" vertex="1" connectable="0" parent="22"><mxGeometry x="0.0989" y="-1" relative="1" as="geometry"><mxPoint as="offset"/></mxGeometry></mxCell><mxCell id="24" value="" style="endArrow=classic;html=1;rounded=0;exitX=0.5;exitY=1;exitDx=0;exitDy=0;entryX=0.5;entryY=0;entryDx=0;entryDy=0;strokeWidth=2;" edge="1" parent="1" source="21" target="Bh3pZPlAoXe7MRYz6FHz-8"><mxGeometry width="50" height="50" relative="1" as="geometry"><mxPoint x="610" y="210" as="sourcePoint"/><mxPoint x="610" y="250" as="targetPoint"/></mxGeometry></mxCell><mxCell id="25" value="address" style="rounded=0;whiteSpace=wrap;html=1;" vertex="1" parent="1"><mxGeometry x="280" y="60" width="120" height="30" as="geometry"/></mxCell><mxCell id="26" value="" style="endArrow=classic;html=1;rounded=0;entryX=1;entryY=0.5;entryDx=0;entryDy=0;exitX=0.5;exitY=0;exitDx=0;exitDy=0;strokeWidth=2;" edge="1" parent="1" source="Bh3pZPlAoXe7MRYz6FHz-3" target="25"><mxGeometry width="50" height="50" relative="1" as="geometry"><mxPoint x="390" y="230" as="sourcePoint"/><mxPoint x="440" y="180" as="targetPoint"/><Array as="points"><mxPoint x="420" y="75"/></Array></mxGeometry></mxCell><mxCell id="27" value="" style="endArrow=classic;html=1;rounded=0;exitX=0;exitY=0.5;exitDx=0;exitDy=0;entryX=0.5;entryY=0;entryDx=0;entryDy=0;strokeWidth=2;" edge="1" parent="1" source="25" target="21"><mxGeometry width="50" height="50" relative="1" as="geometry"><mxPoint x="390" y="220" as="sourcePoint"/><mxPoint x="440" y="170" as="targetPoint"/><Array as="points"><mxPoint x="260" y="75"/></Array></mxGeometry></mxCell><mxCell id="28" value="" style="endArrow=classic;html=1;rounded=0;exitX=0.5;exitY=1;exitDx=0;exitDy=0;entryX=1;entryY=0.5;entryDx=0;entryDy=0;strokeWidth=2;" edge="1" parent="1" source="Bh3pZPlAoXe7MRYz6FHz-3" target="29"><mxGeometry width="50" height="50" relative="1" as="geometry"><mxPoint x="600" y="480" as="sourcePoint"/><mxPoint x="650" y="430" as="targetPoint"/><Array as="points"><mxPoint x="420" y="405"/></Array></mxGeometry></mxCell><mxCell id="29" value="literal" style="rounded=0;whiteSpace=wrap;html=1;" vertex="1" parent="1"><mxGeometry x="40" y="390" width="120" height="30" as="geometry"/></mxCell><mxCell id="30" value="" style="endArrow=classic;html=1;rounded=0;exitX=0.5;exitY=1;exitDx=0;exitDy=0;entryX=0;entryY=0.5;entryDx=0;entryDy=0;strokeWidth=2;" edge="1" parent="1" source="29" target="Bh3pZPlAoXe7MRYz6FHz-1"><mxGeometry width="50" height="50" relative="1" as="geometry"><mxPoint x="600" y="480" as="sourcePoint"/><mxPoint x="650" y="430" as="targetPoint"/><Array as="points"><mxPoint x="100" y="554"/></Array></mxGeometry></mxCell></root></mxGraphModel></diagram></mxfile>